{
    "asset" : {
        "generator" : "Khronos glTF Blender I/O v1.0.5",
        "version" : "2.0"
    },
    "scene" : 0,
    "scenes" : [
        {
            "name" : "Scene",
            "nodes" : [
                2
            ]
        }
    ],
    "nodes" : [
        {
            "mesh" : 0,
            "name" : "base.017",
            "translation" : [
                1.4396933317184448,
                1.2455968856811523,
                -125.2633056640625
            ]
        },
        {
            "mesh" : 1,
            "name" : "color.005",
            "translation" : [
                -0.23485425114631653,
                1.603593111038208,
                -69.81856536865234
            ]
        },
        {
            "children" : [
                0,
                1
            ],
            "name" : "Dumpster",
            "rotation" : [
                0.7071067690849304,
                0,
                0,
                0.7071067690849304
            ]
        }
    ],
    "materials" : [
        {
            "doubleSided" : true,
            "name" : "Mat_Standard.000",
            "pbrMetallicRoughness" : {
                "metallicFactor" : 0,
                "roughnessFactor" : 0.5527864098548889
            }
        },
        {
            "doubleSided" : true,
            "name" : "Mat_Standard.001",
            "pbrMetallicRoughness" : {
                "metallicFactor" : 0,
                "roughnessFactor" : 0.5527864098548889
            }
        }
    ],
    "meshes" : [
        {
            "name" : "Mesh.1321",
            "primitives" : [
                {
                    "attributes" : {
                        "POSITION" : 0,
                        "NORMAL" : 1,
                        "TEXCOORD_0" : 2,
                        "COLOR_0" : 3
                    },
                    "indices" : 4,
                    "material" : 0
                }
            ]
        },
        {
            "name" : "Mesh.1320",
            "primitives" : [
                {
                    "attributes" : {
                        "POSITION" : 5,
                        "NORMAL" : 6,
                        "TEXCOORD_0" : 7,
                        "COLOR_0" : 8
                    },
                    "indices" : 9,
                    "material" : 1
                }
            ]
        }
    ],
    "accessors" : [
        {
            "bufferView" : 0,
            "componentType" : 5126,
            "count" : 1500,
            "max" : [
                108.9355697631836,
                72.92471313476562,
                125.3804702758789
            ],
            "min" : [
                -111.81494903564453,
                -74.91082763671875,
                -50.010345458984375
            ],
            "type" : "VEC3"
        },
        {
            "bufferView" : 1,
            "componentType" : 5126,
            "count" : 1500,
            "type" : "VEC3"
        },
        {
            "bufferView" : 2,
            "componentType" : 5126,
            "count" : 1500,
            "type" : "VEC2"
        },
        {
            "bufferView" : 3,
            "componentType" : 5126,
            "count" : 1500,
            "type" : "VEC4"
        },
        {
            "bufferView" : 4,
            "componentType" : 5123,
            "count" : 1500,
            "type" : "SCALAR"
        },
        {
            "bufferView" : 5,
            "componentType" : 5126,
            "count" : 2556,
            "max" : [
                118.2068862915039,
                74.8471908569336,
                65.67462158203125
            ],
            "min" : [
                -117.73717498779297,
                -78.05437469482422,
                -95.07991790771484
            ],
            "type" : "VEC3"
        },
        {
            "bufferView" : 6,
            "componentType" : 5126,
            "count" : 2556,
            "type" : "VEC3"
        },
        {
            "bufferView" : 7,
            "componentType" : 5126,
            "count" : 2556,
            "type" : "VEC2"
        },
        {
            "bufferView" : 8,
            "componentType" : 5126,
            "count" : 2556,
            "type" : "VEC4"
        },
        {
            "bufferView" : 9,
            "componentType" : 5123,
            "count" : 2556,
            "type" : "SCALAR"
        }
    ],
    "bufferViews" : [
        {
            "buffer" : 0,
            "byteLength" : 18000,
            "byteOffset" : 0
        },
        {
            "buffer" : 0,
            "byteLength" : 18000,
            "byteOffset" : 18000
        },
        {
            "buffer" : 0,
            "byteLength" : 12000,
            "byteOffset" : 36000
        },
        {
            "buffer" : 0,
            "byteLength" : 24000,
            "byteOffset" : 48000
        },
        {
            "buffer" : 0,
            "byteLength" : 3000,
            "byteOffset" : 72000
        },
        {
            "buffer" : 0,
            "byteLength" : 30672,
            "byteOffset" : 75000
        },
        {
            "buffer" : 0,
            "byteLength" : 30672,
            "byteOffset" : 105672
        },
        {
            "buffer" : 0,
            "byteLength" : 20448,
            "byteOffset" : 136344
        },
        {
            "buffer" : 0,
            "byteLength" : 40896,
            "byteOffset" : 156792
        },
        {
            "buffer" : 0,
            "byteLength" : 5112,
            "byteOffset" : 197688
        }
    ],
    "buffers" : [
        {
            "byteLength" : 202800,
            "uri" : "data:application/octet-stream;base64,"
        }
    ]
}
