{
    "asset" : {
        "generator" : "Khronos glTF Blender I/O v1.0.5",
        "version" : "2.0"
    },
    "scene" : 0,
    "scenes" : [
        {
            "name" : "Scene",
            "nodes" : [
                0
            ]
        }
    ],
    "nodes" : [
        {
            "mesh" : 0,
            "name" : "PortaPotty",
            "rotation" : [
                0.5,
                0.5,
                -0.5,
                0.4999999701976776
            ]
        }
    ],
    "materials" : [
        {
            "doubleSided" : true,
            "name" : "Mat_Standard.004",
            "pbrMetallicRoughness" : {
                "metallicFactor" : 0,
                "roughnessFactor" : 0.5527864098548889
            }
        }
    ],
    "meshes" : [
        {
            "name" : "Mesh.1412",
            "primitives" : [
                {
                    "attributes" : {
                        "POSITION" : 0,
                        "NORMAL" : 1,
                        "TEXCOORD_0" : 2,
                        "COLOR_0" : 3
                    },
                    "indices" : 4,
                    "material" : 0
                }
            ]
        }
    ],
    "accessors" : [
        {
            "bufferView" : 0,
            "componentType" : 5126,
            "count" : 1884,
            "max" : [
                50.78496170043945,
                46.69694519042969,
                95.56768035888672
            ],
            "min" : [
                -50.784969329833984,
                -48.60995101928711,
                -108.78873443603516
            ],
            "type" : "VEC3"
        },
        {
            "bufferView" : 1,
            "componentType" : 5126,
            "count" : 1884,
            "type" : "VEC3"
        },
        {
            "bufferView" : 2,
            "componentType" : 5126,
            "count" : 1884,
            "type" : "VEC2"
        },
        {
            "bufferView" : 3,
            "componentType" : 5126,
            "count" : 1884,
            "type" : "VEC4"
        },
        {
            "bufferView" : 4,
            "componentType" : 5123,
            "count" : 1884,
            "type" : "SCALAR"
        }
    ],
    "bufferViews" : [
        {
            "buffer" : 0,
            "byteLength" : 22608,
            "byteOffset" : 0
        },
        {
            "buffer" : 0,
            "byteLength" : 22608,
            "byteOffset" : 22608
        },
        {
            "buffer" : 0,
            "byteLength" : 15072,
            "byteOffset" : 45216
        },
        {
            "buffer" : 0,
            "byteLength" : 30144,
            "byteOffset" : 60288
        },
        {
            "buffer" : 0,
            "byteLength" : 3768,
            "byteOffset" : 90432
        }
    ],
    "buffers" : [
        {
            "byteLength" : 94200,
            "uri" : "data:application/octet-stream;base64,"
        }
    ]
}
