{
    "asset" : {
        "generator" : "Khronos glTF Blender I/O v1.0.5",
        "version" : "2.0"
    },
    "scene" : 0,
    "scenes" : [
        {
            "name" : "Scene",
            "nodes" : [
                0
            ]
        }
    ],
    "nodes" : [
        {
            "mesh" : 0,
            "name" : "TrafficCone",
            "rotation" : [
                0.5,
                0.5,
                -0.5,
                0.4999999701976776
            ],
            "scale" : [
                0.10000000149011612,
                0.10000000149011612,
                0.10000000149011612
            ]
        }
    ],
    "materials" : [
        {
            "doubleSided" : true,
            "name" : "Mat_Standard.004",
            "pbrMetallicRoughness" : {
                "metallicFactor" : 0,
                "roughnessFactor" : 0.5527864098548889
            }
        }
    ],
    "meshes" : [
        {
            "name" : "Mesh.1341",
            "primitives" : [
                {
                    "attributes" : {
                        "POSITION" : 0,
                        "NORMAL" : 1,
                        "TEXCOORD_0" : 2,
                        "TEXCOORD_1" : 3,
                        "COLOR_0" : 4
                    },
                    "indices" : 5,
                    "material" : 0
                }
            ]
        }
    ],
    "accessors" : [
        {
            "bufferView" : 0,
            "componentType" : 5126,
            "count" : 1404,
            "max" : [
                30.736164093017578,
                30.288326263427734,
                35.32901382446289
            ],
            "min" : [
                -30.736160278320312,
                -30.2883358001709,
                -45.22217559814453
            ],
            "type" : "VEC3"
        },
        {
            "bufferView" : 1,
            "componentType" : 5126,
            "count" : 1404,
            "type" : "VEC3"
        },
        {
            "bufferView" : 2,
            "componentType" : 5126,
            "count" : 1404,
            "type" : "VEC2"
        },
        {
            "bufferView" : 3,
            "componentType" : 5126,
            "count" : 1404,
            "type" : "VEC2"
        },
        {
            "bufferView" : 4,
            "componentType" : 5126,
            "count" : 1404,
            "type" : "VEC4"
        },
        {
            "bufferView" : 5,
            "componentType" : 5123,
            "count" : 1404,
            "type" : "SCALAR"
        }
    ],
    "bufferViews" : [
        {
            "buffer" : 0,
            "byteLength" : 16848,
            "byteOffset" : 0
        },
        {
            "buffer" : 0,
            "byteLength" : 16848,
            "byteOffset" : 16848
        },
        {
            "buffer" : 0,
            "byteLength" : 11232,
            "byteOffset" : 33696
        },
        {
            "buffer" : 0,
            "byteLength" : 11232,
            "byteOffset" : 44928
        },
        {
            "buffer" : 0,
            "byteLength" : 22464,
            "byteOffset" : 56160
        },
        {
            "buffer" : 0,
            "byteLength" : 2808,
            "byteOffset" : 78624
        }
    ],
    "buffers" : [
        {
            "byteLength" : 81432,
            "uri" : "data:application/octet-stream;base64,"
        }
    ]
}
