{
    "asset" : {
        "generator" : "Khronos glTF Blender I/O v1.0.5",
        "version" : "2.0"
    },
    "scene" : 0,
    "scenes" : [
        {
            "name" : "Scene",
            "nodes" : [
                0
            ]
        }
    ],
    "nodes" : [
        {
            "mesh" : 0,
            "name" : "Einkaufswagen"
        }
    ],
    "materials" : [
        {
            "doubleSided" : true,
            "name" : "Gum",
            "pbrMetallicRoughness" : {
                "baseColorFactor" : [
                    0.008075856603682041,
                    0.008075856603682041,
                    0.008075856603682041,
                    1
                ],
                "metallicFactor" : 0,
                "roughnessFactor" : 0.8083333373069763
            }
        },
        {
            "doubleSided" : true,
            "name" : "Griff",
            "pbrMetallicRoughness" : {
                "baseColorFactor" : [
                    0.8000000715255737,
                    0.2468610554933548,
                    0.011359923519194126,
                    1
                ],
                "metallicFactor" : 0,
                "roughnessFactor" : 0.7833333015441895
            }
        },
        {
            "doubleSided" : true,
            "name" : "Chrome",
            "pbrMetallicRoughness" : {
                "baseColorFactor" : [
                    0.800000011920929,
                    0.800000011920929,
                    0.800000011920929,
                    1
                ],
                "metallicFactor" : 1,
                "roughnessFactor" : 0.12548211216926575
            }
        }
    ],
    "meshes" : [
        {
            "name" : "BezierCurve.001",
            "primitives" : [
                {
                    "attributes" : {
                        "POSITION" : 0,
                        "NORMAL" : 1,
                        "TEXCOORD_0" : 2
                    },
                    "indices" : 3,
                    "material" : 0
                },
                {
                    "attributes" : {
                        "POSITION" : 4,
                        "NORMAL" : 5,
                        "TEXCOORD_0" : 6
                    },
                    "indices" : 7,
                    "material" : 1
                },
                {
                    "attributes" : {
                        "POSITION" : 8,
                        "NORMAL" : 9,
                        "TEXCOORD_0" : 10
                    },
                    "indices" : 11,
                    "material" : 2
                }
            ]
        }
    ],
    "accessors" : [
        {
            "bufferView" : 0,
            "componentType" : 5126,
            "count" : 388,
            "max" : [
                0.04316335543990135,
                0.02196391671895981,
                0.07106761634349823
            ],
            "min" : [
                -0.04316335543990135,
                0,
                -0.06584732234477997
            ],
            "type" : "VEC3"
        },
        {
            "bufferView" : 1,
            "componentType" : 5126,
            "count" : 388,
            "type" : "VEC3"
        },
        {
            "bufferView" : 2,
            "componentType" : 5126,
            "count" : 388,
            "type" : "VEC2"
        },
        {
            "bufferView" : 3,
            "componentType" : 5123,
            "count" : 1920,
            "type" : "SCALAR"
        },
        {
            "bufferView" : 4,
            "componentType" : 5126,
            "count" : 46,
            "max" : [
                0.037621088325977325,
                0.13506220281124115,
                -0.03809846565127373
            ],
            "min" : [
                -0.037621088325977325,
                0.12379132211208344,
                -0.05825231224298477
            ],
            "type" : "VEC3"
        },
        {
            "bufferView" : 5,
            "componentType" : 5126,
            "count" : 46,
            "type" : "VEC3"
        },
        {
            "bufferView" : 6,
            "componentType" : 5126,
            "count" : 46,
            "type" : "VEC2"
        },
        {
            "bufferView" : 7,
            "componentType" : 5123,
            "count" : 210,
            "type" : "SCALAR"
        },
        {
            "bufferView" : 8,
            "componentType" : 5126,
            "count" : 1092,
            "max" : [
                0.04012909159064293,
                0.1297353357076645,
                0.0737275630235672
            ],
            "min" : [
                -0.04012909531593323,
                0.002555929124355316,
                -0.06329139322042465
            ],
            "type" : "VEC3"
        },
        {
            "bufferView" : 9,
            "componentType" : 5126,
            "count" : 1092,
            "type" : "VEC3"
        },
        {
            "bufferView" : 10,
            "componentType" : 5126,
            "count" : 1092,
            "type" : "VEC2"
        },
        {
            "bufferView" : 11,
            "componentType" : 5123,
            "count" : 4530,
            "type" : "SCALAR"
        }
    ],
    "bufferViews" : [
        {
            "buffer" : 0,
            "byteLength" : 4656,
            "byteOffset" : 0
        },
        {
            "buffer" : 0,
            "byteLength" : 4656,
            "byteOffset" : 4656
        },
        {
            "buffer" : 0,
            "byteLength" : 3104,
            "byteOffset" : 9312
        },
        {
            "buffer" : 0,
            "byteLength" : 3840,
            "byteOffset" : 12416
        },
        {
            "buffer" : 0,
            "byteLength" : 552,
            "byteOffset" : 16256
        },
        {
            "buffer" : 0,
            "byteLength" : 552,
            "byteOffset" : 16808
        },
        {
            "buffer" : 0,
            "byteLength" : 368,
            "byteOffset" : 17360
        },
        {
            "buffer" : 0,
            "byteLength" : 420,
            "byteOffset" : 17728
        },
        {
            "buffer" : 0,
            "byteLength" : 13104,
            "byteOffset" : 18148
        },
        {
            "buffer" : 0,
            "byteLength" : 13104,
            "byteOffset" : 31252
        },
        {
            "buffer" : 0,
            "byteLength" : 8736,
            "byteOffset" : 44356
        },
        {
            "buffer" : 0,
            "byteLength" : 9060,
            "byteOffset" : 53092
        }
    ],
    "buffers" : [
        {
            "byteLength" : 62152,
            "uri" : "data:application/octet-stream;base64,"
        }
    ]
}
