{
    "asset" : {
        "generator" : "Khronos glTF Blender I/O v1.0.5",
        "version" : "2.0"
    },
    "scene" : 0,
    "scenes" : [
        {
            "name" : "Scene",
            "nodes" : [
                0
            ]
        }
    ],
    "nodes" : [
        {
            "mesh" : 0,
            "name" : "Parkinglot Center 2 Model",
            "rotation" : [
                0,
                -0.7071067094802856,
                0,
                0.70710688829422
            ]
        }
    ],
    "materials" : [
        {
            "doubleSided" : true,
            "name" : "Road",
            "pbrMetallicRoughness" : {}
        }
    ],
    "meshes" : [
        {
            "name" : "Plane.018",
            "primitives" : [
                {
                    "attributes" : {
                        "POSITION" : 0,
                        "NORMAL" : 1,
                        "TEXCOORD_0" : 2
                    },
                    "indices" : 3,
                    "material" : 0
                }
            ]
        }
    ],
    "accessors" : [
        {
            "bufferView" : 0,
            "componentType" : 5126,
            "count" : 61,
            "max" : [
                1.1920927818209748e-06,
                0,
                -1.1920928955078125e-06
            ],
            "min" : [
                -14.99999713897705,
                0,
                -15
            ],
            "type" : "VEC3"
        },
        {
            "bufferView" : 1,
            "componentType" : 5126,
            "count" : 61,
            "type" : "VEC3"
        },
        {
            "bufferView" : 2,
            "componentType" : 5126,
            "count" : 61,
            "type" : "VEC2"
        },
        {
            "bufferView" : 3,
            "componentType" : 5123,
            "count" : 114,
            "type" : "SCALAR"
        }
    ],
    "bufferViews" : [
        {
            "buffer" : 0,
            "byteLength" : 732,
            "byteOffset" : 0
        },
        {
            "buffer" : 0,
            "byteLength" : 732,
            "byteOffset" : 732
        },
        {
            "buffer" : 0,
            "byteLength" : 488,
            "byteOffset" : 1464
        },
        {
            "buffer" : 0,
            "byteLength" : 228,
            "byteOffset" : 1952
        }
    ],
    "buffers" : [
        {
            "byteLength" : 2180,
            "uri" : "data:application/octet-stream;base64,"
        }
    ]
}
