{
    "asset" : {
        "generator" : "Khronos glTF Blender I/O v1.0.5",
        "version" : "2.0"
    },
    "scene" : 0,
    "scenes" : [
        {
            "name" : "Scene",
            "nodes" : [
                0
            ]
        }
    ],
    "nodes" : [
        {
            "mesh" : 0,
            "name" : "Parkinglot Corner 2 Model",
            "rotation" : [
                1,
                0,
                0,
                -1.6292068494294654e-07
            ]
        }
    ],
    "materials" : [
        {
            "doubleSided" : true,
            "name" : "Road.004",
            "pbrMetallicRoughness" : {}
        }
    ],
    "meshes" : [
        {
            "name" : "Plane.012",
            "primitives" : [
                {
                    "attributes" : {
                        "POSITION" : 0,
                        "NORMAL" : 1,
                        "TEXCOORD_0" : 2
                    },
                    "indices" : 3,
                    "material" : 0
                }
            ]
        }
    ],
    "accessors" : [
        {
            "bufferView" : 0,
            "componentType" : 5126,
            "count" : 68,
            "max" : [
                15,
                5,
                15.000000953674316
            ],
            "min" : [
                0,
                -0.25,
                0
            ],
            "type" : "VEC3"
        },
        {
            "bufferView" : 1,
            "componentType" : 5126,
            "count" : 68,
            "type" : "VEC3"
        },
        {
            "bufferView" : 2,
            "componentType" : 5126,
            "count" : 68,
            "type" : "VEC2"
        },
        {
            "bufferView" : 3,
            "componentType" : 5123,
            "count" : 99,
            "type" : "SCALAR"
        }
    ],
    "bufferViews" : [
        {
            "buffer" : 0,
            "byteLength" : 816,
            "byteOffset" : 0
        },
        {
            "buffer" : 0,
            "byteLength" : 816,
            "byteOffset" : 816
        },
        {
            "buffer" : 0,
            "byteLength" : 544,
            "byteOffset" : 1632
        },
        {
            "buffer" : 0,
            "byteLength" : 198,
            "byteOffset" : 2176
        }
    ],
    "buffers" : [
        {
            "byteLength" : 2376,
            "uri" : "data:application/octet-stream;base64,"
        }
    ]
}
