{
    "asset" : {
        "generator" : "Khronos glTF Blender I/O v1.0.5",
        "version" : "2.0"
    },
    "scene" : 0,
    "scenes" : [
        {
            "name" : "Scene",
            "nodes" : [
                0
            ]
        }
    ],
    "nodes" : [
        {
            "mesh" : 0,
            "name" : "Parkinglot Edge 2 Model",
            "rotation" : [
                0,
                -0.7071067094802856,
                0,
                0.70710688829422
            ]
        }
    ],
    "materials" : [
        {
            "doubleSided" : true,
            "name" : "Road.002",
            "pbrMetallicRoughness" : {}
        }
    ],
    "meshes" : [
        {
            "name" : "Plane.019",
            "primitives" : [
                {
                    "attributes" : {
                        "POSITION" : 0,
                        "NORMAL" : 1,
                        "TEXCOORD_0" : 2
                    },
                    "indices" : 3,
                    "material" : 0
                }
            ]
        }
    ],
    "accessors" : [
        {
            "bufferView" : 0,
            "componentType" : 5126,
            "count" : 46,
            "max" : [
                1.1920928955078125e-06,
                0.25,
                -1.1249187537032412e-06
            ],
            "min" : [
                -15,
                -5,
                -15.000000953674316
            ],
            "type" : "VEC3"
        },
        {
            "bufferView" : 1,
            "componentType" : 5126,
            "count" : 46,
            "type" : "VEC3"
        },
        {
            "bufferView" : 2,
            "componentType" : 5126,
            "count" : 46,
            "type" : "VEC2"
        },
        {
            "bufferView" : 3,
            "componentType" : 5123,
            "count" : 72,
            "type" : "SCALAR"
        }
    ],
    "bufferViews" : [
        {
            "buffer" : 0,
            "byteLength" : 552,
            "byteOffset" : 0
        },
        {
            "buffer" : 0,
            "byteLength" : 552,
            "byteOffset" : 552
        },
        {
            "buffer" : 0,
            "byteLength" : 368,
            "byteOffset" : 1104
        },
        {
            "buffer" : 0,
            "byteLength" : 144,
            "byteOffset" : 1472
        }
    ],
    "buffers" : [
        {
            "byteLength" : 1616,
            "uri" : "data:application/octet-stream;base64,"
        }
    ]
}
